<?xml version="1.0" standalone="no"?> <!DOCTYPE svg PUBLIC "-//W3C//DTD SVG 1.0//EN" "http://www.w3.org/TR/2001/REC-SVG-20010904/DTD/svg10.dtd" > <svg xmlns="http://www.w3.org/2000/svg" width="100%" height="100%">
<defs >
<font id="sohostd-regular" horiz-adv-x="477" ><font-face
    font-family="Soho Std"
    units-per-em="1000"
    panose-1="2 4 5 3 3 5 6 2 2 4"
    ascent="774"
    descent="-226"
    alphabetic="0" />
<missing-glyph horiz-adv-x="191" />
<glyph unicode=" " glyph-name="space" horiz-adv-x="191" />
<glyph unicode="!" glyph-name="exclam" horiz-adv-x="251" d="M171 0H80V135H171V0ZM174 774L165 193H87L77 774H174Z" />
<glyph unicode="&quot;" glyph-name="quotedbl" horiz-adv-x="338" d="M318 759L282 519H215L227 759H318ZM123 759H32L20 519H87L123 759Z" />
<glyph unicode="#" glyph-name="numbersign" horiz-adv-x="741" d="M656 197H512L490 0H410L431 197H263L242 0H161L183 197H84V274H191L211 461H84V537H220L243 743H323L301 537H468L492 743H572L550 537H656V461H541L521 274H656V197ZM460 461H292L272 274H440L460
461Z" />
<glyph unicode="$" glyph-name="dollar" horiz-adv-x="620" d="M547 188Q547 104 497 53T351 -8V-120H264V-12Q148 -7 89 8V156H160L170 71Q232 67 298 67Q454 67 454 188Q454 234 433 262T353 317L225 374Q147 409 110 455T72 575Q72 732 264 751V855H351V754Q456
751 521 735V592H450L439 670Q377 675 320 675Q242 675 204 653T166 575Q166 532 187 504T266 451L394 395Q471 361 509 312T547 188Z" />
<glyph unicode="%" glyph-name="percent" horiz-adv-x="1068" d="M1009 194Q1009 94 964 42T833 -10T703 42T657 194V251Q657 351 702 402T833 454T963 403T1009 251V194ZM929 194V251Q929 326 904 356T833 386T763 356T737 251V194Q737 118 762 88T833 58T903
88T929 194ZM814 743L340 0H250L724 743H814ZM409 494Q409 289 234 289Q142 289 100 344T58 494V549Q58 754 234 754Q409 754 409 549V494ZM329 494V549Q329 624 307 655T234 686Q185 686 162 654T138 549V494Q138 419 161 388T234 357T306 388T329 494Z" />
<glyph unicode="&amp;" glyph-name="ampersand" horiz-adv-x="739" d="M577 0L521 56Q438 -14 302 -14Q195 -14 128 32T60 178V185Q60 249 92 293T198 381L191 389Q137 444 112 486T87 587V591Q87 755 304 755Q430 755 511 735V592H440L429 671Q389 675 308 675Q245
675 213 657T180 591V587Q180 547 198 517T268 434L520 181Q554 250 554 366L499 372V441H694V372L639 366Q639 218 579 122L685 16V0H577ZM301 64Q406 64 465 112L255 324Q199 293 177 264T154 185V178Q154 120 195 92T301 64Z" />
<glyph unicode="&apos;" glyph-name="quotesingle" horiz-adv-x="143" d="M123 759L87 519H20L32 759H123Z" />
<glyph unicode="(" glyph-name="parenleft" horiz-adv-x="356" d="M317 -207H230Q165 -128 118 -7T70 264V271Q70 422 117 543T230 743H317Q240 640 200 528T160 271V264Q160 120 200 9T317 -207Z" />
<glyph unicode=")" glyph-name="parenright" horiz-adv-x="356" d="M285 264Q285 113 238 -8T126 -207H38Q115 -104 155 8T196 264V271Q196 416 156 528T38 743H126Q190 665 237 544T285 271V264Z" />
<glyph unicode="*" glyph-name="asterisk" horiz-adv-x="532" d="M464 601L394 578Q356 566 320 559Q343 537 369 502L412 443L349 397L306 456Q281 492 265 520Q255 501 225 457L183 397L119 443L162 503Q182 532 210 560Q177 567 138 579L68 601L92 676L162
653Q202 640 232 626Q227 668 227 700V774H305V700Q305 663 299 624Q329 639 370 652L440 676L464 601Z" />
<glyph unicode="+" glyph-name="plus" horiz-adv-x="702" d="M601 354H388V139H315V354H100V427H315V642H388V427H601V354Z" />
<glyph unicode="," glyph-name="comma" horiz-adv-x="277" d="M223 138L107 -89H25L118 138H223Z" />
<glyph unicode="-" glyph-name="hyphen" horiz-adv-x="396" d="M321 255H74V330H321V255Z" />
<glyph unicode="." glyph-name="period" horiz-adv-x="252" d="M171 0H81V138H171V0Z" />
<glyph unicode="/" glyph-name="slash" horiz-adv-x="411" d="M401 743L97 0H10L315 743H401Z" />
<glyph unicode="0" glyph-name="zero" horiz-adv-x="638" d="M580 299Q580 145 513 66T319 -14T126 65T58 299V442Q58 596 125 675T319 755T512 676T580 442V299ZM488 299V442Q488 676 319 676T150 442V299Q150 65 319 65T488 299Z" />
<glyph unicode="1" glyph-name="one" horiz-adv-x="559" d="M498 0H62V75L235 81V655L61 599V679L259 749H326V81L498 75V0Z" />
<glyph unicode="2" glyph-name="two" horiz-adv-x="590" d="M524 0H64V94Q64 175 88 229T157 320T291 406Q382 455 411 489T441 575Q441 632 403 654T272 676Q218 676 153 671L143 592H73V732Q188 755 277 755Q408 755 470 712T533 575Q533 503 492 450T342 338Q225
275 190 230T154 95V81H443L454 156H524V0Z" />
<glyph unicode="3" glyph-name="three" horiz-adv-x="597" d="M538 201Q538 84 473 35T278 -14Q183 -14 75 12V155H146L156 70Q216 65 277 65Q367 65 406 93T446 201V226Q446 285 422 315T321 346H106V423H321Q397 423 421 455T446 547V560Q446 626 410 651T276
676Q229 676 159 672L149 592H78V733Q173 755 278 755Q413 755 475 711T538 560V547Q538 429 448 385Q538 340 538 226V201Z" />
<glyph unicode="4" glyph-name="four" horiz-adv-x="653" d="M604 196H491V78L545 73V0H345V73L399 78V196H47V290L386 743H491V276H604V196ZM399 276V619L139 276H399Z" />
<glyph unicode="5" glyph-name="five" horiz-adv-x="585" d="M527 207Q527 90 460 38T256 -14Q161 -14 51 10V155H122L132 71Q210 65 254 65Q354 65 395 96T436 207V236Q436 312 399 341T254 370H66L98 743H500V592H430L420 661H176L157 449H258Q400 449 463 399T527
236V207Z" />
<glyph unicode="6" glyph-name="six" horiz-adv-x="631" d="M572 221Q572 163 554 119T510 51T449 11T384 -9T323 -14Q277 -14 244 -9T173 13T113 62T74 148T58 281V474Q58 617 121 686T336 755Q436 755 539 733V592H468L458 672Q386 676 338 676Q275 676 236
663T179 619T156 558T150 474V439Q230 462 324 462Q366 462 398 458T465 442T521 408T557 350T572 263V221ZM480 221V259Q480 337 442 362T320 388Q230 388 150 369V276Q150 154 193 110T323 65Q391 65 435 103T480 221Z" />
<glyph unicode="7" glyph-name="seven" horiz-adv-x="576" d="M533 645L209 0H106L447 661H132L123 592H52V743H533V645Z" />
<glyph unicode="8" glyph-name="eight" horiz-adv-x="654" d="M591 214Q591 151 575 107T536 39T474 4T405 -11T328 -14H325Q278 -14 248 -12T179 3T118 39T79 106T62 214V222Q62 336 143 386Q65 433 65 542V553Q65 614 87 656T149 718T230 747T325 755H328Q381
755 422 747T504 719T566 656T588 553V542Q588 433 510 386Q591 336 591 222V214ZM499 214V222Q499 288 476 317T394 347H259Q201 347 178 318T154 222V214Q154 165 166 134T203 89T255 70T325 65H328Q371 65 398 69T450 88T487 134T499 214ZM497 542V553Q497 627
455 651T328 676H325Q241 676 199 652T156 553V542Q156 484 179 455T259 425H394Q451 425 474 454T497 542Z" />
<glyph unicode="9" glyph-name="nine" horiz-adv-x="631" d="M572 268Q572 125 510 56T294 -13Q194 -13 91 9V151H161L172 70Q242 66 292 66Q355 66 394 79T451 123T474 184T480 268V303Q401 280 306 280Q253 280 214 287T137 314T79 375T58 479V521Q58 579 76
623T120 691T182 731T247 751T308 756Q354 756 387 751T458 729T518 680T556 594T572 461V268ZM480 373V466Q480 588 438 632T308 677Q239 677 195 639T150 521V483Q150 405 188 380T310 354Q400 354 480 373Z" />
<glyph unicode=":" glyph-name="colon" horiz-adv-x="258" d="M174 0H83V138H174V0ZM174 550V412H83V550H174Z" />
<glyph unicode=";" glyph-name="semicolon" horiz-adv-x="268" d="M196 138L78 -89H-1L92 138H196ZM184 412H93V550H184V412Z" />
<glyph unicode="&lt;" glyph-name="less" horiz-adv-x="702" d="M557 139H434L144 391L434 642H557L266 391L557 139Z" />
<glyph unicode="=" glyph-name="equal" horiz-adv-x="702" d="M574 244H127V318H574V244ZM574 464H127V539H574V464Z" />
<glyph unicode="&gt;" glyph-name="greater" horiz-adv-x="702" d="M557 391L266 139H144L434 391L144 642H266L557 391Z" />
<glyph unicode="?" glyph-name="question" horiz-adv-x="497" d="M232 0H142V138H232V0ZM230 235V193H142V235Q142 305 160 350T241 456Q298 511 317 544T336 616V624Q336 672 306 690T212 708Q185 708 137 706L125 630H55V764Q142 787 220 787Q323 787 376 749T429
624V616Q429 567 407 524T325 421Q261 356 246 324T230 235Z" />
<glyph unicode="@" glyph-name="at" horiz-adv-x="834" d="M779 368Q779 297 761 242T703 144T593 77T424 54Q320 54 273 90T225 204Q225 236 229 280Q238 397 286 442T420 487Q503 487 583 467L550 138Q708 174 708 369Q708 485 645 540T452 596Q313 596 238
529T135 302Q123 232 123 164Q123 63 179 6T375 -51Q481 -51 553 -42V-92Q458 -107 376 -107Q54 -107 54 164Q54 239 66 309Q96 492 189 574T452 656Q615 656 697 582T779 368ZM491 409Q466 413 421 413Q371 413 345 387T312 278Q308 223 308 204Q308 158 333 141T422
123Q448 123 464 124L491 409Z" />
<glyph unicode="A" glyph-name="A" horiz-adv-x="739" d="M235 0H35V73L90 78L281 664L223 669V743H434L652 78L704 73V0H502V73L554 77L502 243H236L183 77L235 73V0ZM474 327L404 544Q386 599 374 666H364Q348 586 334 544L263 327H474Z" />
<glyph unicode="B" glyph-name="B" horiz-adv-x="658" d="M603 209Q603 157 587 119T546 58T479 22T395 5T295 0H50V74L104 81V661L50 668V743H300Q359 743 401 739T482 723T546 690T584 635T599 552V543Q599 492 574 448T498 383Q551 363 577 320T603 220V209ZM510
209V220Q510 280 473 313T345 346H196V81H295Q409 81 459 106T510 209ZM506 543V552Q506 582 497 602T472 634T428 652T373 659T300 661H196V425H345Q436 425 471 455T506 543Z" />
<glyph unicode="C" glyph-name="C" horiz-adv-x="584" d="M527 3Q425 -14 355 -14Q301 -14 258 -6T176 25T111 83T70 176T55 310V433Q55 528 77 593T142 692T236 741T355 755Q442 755 527 738V592H455L445 670Q358 673 355 673Q246 673 197 620T147 433V310Q147
177 196 123T355 69Q387 69 445 71L455 151H527V3Z" />
<glyph unicode="D" glyph-name="D" horiz-adv-x="696" d="M638 312Q638 0 312 0H50V73L104 81V661L50 669V743H312Q479 743 558 662T638 433V312ZM545 312V433Q545 556 487 608T304 661H196V81H304Q427 81 486 134T545 312Z" />
<glyph unicode="E" glyph-name="E" horiz-adv-x="599" d="M544 0H50V73L104 78V664L50 669V743H544V592H472L462 661H196V427H523V344H196V81H462L472 152H544V0Z" />
<glyph unicode="F" glyph-name="F" horiz-adv-x="589" d="M523 344H196V78L250 73V0H50V73L104 78V664L50 669V743H544V592H472L462 661H196V427H523V344Z" />
<glyph unicode="G" glyph-name="G" horiz-adv-x="634" d="M569 7Q464 -14 350 -14Q55 -14 55 306V437Q55 755 351 755Q465 755 569 736V592H497L486 668Q406 673 364 673Q312 673 277 665T210 632T163 559T148 437V306Q148 171 200 121T362 70Q432 70 477 73V306L371
314V386H569V7Z" />
<glyph unicode="H" glyph-name="H" horiz-adv-x="764" d="M714 0H514V73L568 78V351H196V78L250 73V0H50V73L104 78V664L50 669V743H250V670L196 665V434H568V665L514 670V743H714V669L660 664V78L714 73V0Z" />
<glyph unicode="I" glyph-name="I" horiz-adv-x="305" d="M252 0H52V73L106 78V664L52 669V743H252V669L198 664V78L252 73V0Z" />
<glyph unicode="J" glyph-name="J" horiz-adv-x="300" d="M247 669L193 664V-60Q193 -144 159 -181T40 -219Q-10 -219 -34 -211V-142H34Q78 -142 90 -125T102 -60V664L48 669V743H247V669Z" />
<glyph unicode="K" glyph-name="K" horiz-adv-x="667" d="M622 0H507L196 358V78L250 73V0H50V73L104 78V664L50 669V743H250V670L196 665V394L515 743H622V669L563 665L300 377L566 77L622 73V0Z" />
<glyph unicode="L" glyph-name="L" horiz-adv-x="578" d="M536 0H50V73L104 78V664L50 669V743H250V669L196 664V81H454L464 153H536V0Z" />
<glyph unicode="M" glyph-name="M" horiz-adv-x="851" d="M801 0H602V73L656 78V483Q656 536 661 621H659Q652 604 606 507L481 240H368L246 507L193 621H191Q195 519 195 483V78L249 73V0H50V73L104 78V664L50 669V743H225L379 408Q383 400 423 308H425Q430 320
471 410L627 743H801V669L747 664V78L801 73V0Z" />
<glyph unicode="N" glyph-name="N" horiz-adv-x="744" d="M694 669L640 664V0H509L247 533Q197 635 187 659H185Q190 577 190 504V78L244 73V0H50V73L104 78V664L50 669V743H236L495 224Q523 167 555 97H557Q552 171 552 260V665L498 670V743H694V669Z" />
<glyph unicode="O" glyph-name="O" horiz-adv-x="684" d="M629 318Q629 159 555 73T342 -14T130 72T55 318V424Q55 583 129 669T342 755T555 669T629 424V318ZM536 318V424Q536 673 342 673T148 424V318Q148 68 342 68T536 318Z" />
<glyph unicode="P" glyph-name="P" horiz-adv-x="639" d="M589 511Q589 456 573 416T531 352T465 314T382 294T284 289H196V78L250 73V0H50V73L104 78V664L50 669V743H284Q339 743 381 738T464 719T531 681T573 618T589 524V511ZM496 511V524Q495 607 447 634T284
661H196V370H284Q398 370 447 398T496 511Z" />
<glyph unicode="Q" glyph-name="Q" horiz-adv-x="684" d="M629 318Q629 173 567 88T387 -11V-66Q387 -97 399 -106T454 -115H539V-178Q492 -188 428 -188Q362 -188 330 -163T297 -66V-11Q180 3 118 87T55 318V424Q55 583 129 669T342 755T555 669T629 424V318ZM536
318V424Q536 673 342 673T148 424V318Q148 68 342 68T536 318Z" />
<glyph unicode="R" glyph-name="R" horiz-adv-x="680" d="M645 0H527L352 290Q332 289 282 289H196V78L250 73V0H50V73L104 78V664L50 669V743H279Q335 743 378 738T462 719T530 680T573 617T589 523V516Q589 357 450 309L589 77L645 73V0ZM496 516V523Q496 606
446 633T279 661H196V370H282Q396 370 446 401T496 516Z" />
<glyph unicode="S" glyph-name="S" horiz-adv-x="585" d="M530 188Q530 90 468 38T284 -14Q153 -14 72 7V155H142L153 69Q222 66 284 66Q361 66 398 95T436 188Q436 234 415 262T335 317L208 374Q130 409 93 455T55 575Q55 755 298 755Q426 755 503 735V592H433L420
671Q369 675 301 675Q223 675 186 653T148 575Q148 531 169 504T248 451L376 395Q456 359 493 312T530 188Z" />
<glyph unicode="T" glyph-name="T" horiz-adv-x="634" d="M592 592H521L511 661H363V76L417 71V0H217V71L271 76V661H122L113 592H42V743H592V592Z" />
<glyph unicode="U" glyph-name="U" horiz-adv-x="747" d="M697 670L643 665V309Q643 -14 374 -14Q104 -14 104 309V665L50 670V743H250V670L196 665V319Q196 182 235 126T374 69T513 126T552 319V665L498 670V743H697V670Z" />
<glyph unicode="V" glyph-name="V" horiz-adv-x="748" d="M708 669L652 664L433 0H310L91 664L40 669V743H240V670L188 666L339 198Q341 194 373 70H375Q397 164 408 198L559 666L508 670V743H708V669Z" />
<glyph unicode="W" glyph-name="W" horiz-adv-x="963" d="M923 669L871 664L751 0H604L503 460L482 555H479L458 460L358 0H209L89 664L40 669V743H238V670L186 665L260 221L284 73H289L321 220L410 633H554L644 217L675 73H680Q689 138 703 221L777 665L724 670V743H923V669Z"
/>
<glyph unicode="X" glyph-name="X" horiz-adv-x="722" d="M672 0H463V68L509 72L354 306L204 71L257 68V0H50V73L106 78L303 378L111 664L55 669V743H262V675L215 671L367 443L512 670L460 675V743H667V669L610 664L416 374L615 78L672 73V0Z" />
<glyph unicode="Y" glyph-name="Y" horiz-adv-x="662" d="M627 669L581 665L376 294V81L430 76V0H231V76L285 81V294L80 665L35 669V743H233V675L178 670L273 498Q313 425 330 380H336Q345 403 396 498L490 670L431 675V743H627V669Z" />
<glyph unicode="Z" glyph-name="Z" horiz-adv-x="624" d="M569 0H55V102L456 661H150L141 592H70V743H555V642L155 81H488L499 156H569V0Z" />
<glyph unicode="[" glyph-name="bracketleft" horiz-adv-x="404" d="M346 -208H114V743H346V666H203V-133H346V-208Z" />
<glyph unicode="\" glyph-name="backslash" horiz-adv-x="442" d="M416 0H329L25 743H111L416 0Z" />
<glyph unicode="]" glyph-name="bracketright" horiz-adv-x="404" d="M289 -208H57V-133H200V667H57V743H289V-208Z" />
<glyph unicode="^" glyph-name="asciicircum" horiz-adv-x="702" d="M591 415H493L350 701L208 415H109L274 746H426L591 415Z" />
<glyph unicode="_" glyph-name="underscore" horiz-adv-x="574" d="M579 -106H-6V-47H579V-106Z" />
<glyph unicode="`" glyph-name="grave" horiz-adv-x="457" d="M294 616H204L54 770H163L294 616Z" />
<glyph unicode="a" glyph-name="a" horiz-adv-x="575" d="M531 0H391V37Q318 -14 216 -14Q52 -14 52 142V162Q52 263 114 297T305 332H387V372Q387 444 364 466T258 488Q216 488 166 485L157 427H88V540Q106 547 157 555T265 564Q332 564 375 553T440 515T469
456T477 372V78L531 73V0ZM387 100V264H305Q213 264 178 245T142 162V135Q142 91 166 74T234 56Q277 56 320 70T387 100Z" />
<glyph unicode="b" glyph-name="b" horiz-adv-x="575" d="M520 238Q520 107 460 47T276 -14Q203 -14 74 0V696L20 701V774H164V529Q231 566 312 566Q418 566 469 509T520 332V238ZM430 239V333Q430 416 401 451T301 487Q215 487 164 458V71Q227 66 278 66Q358
66 394 104T430 239Z" />
<glyph unicode="c" glyph-name="c" horiz-adv-x="489" d="M434 5Q374 -14 277 -14Q166 -14 112 50T57 234V317Q57 564 277 564Q384 564 434 545V427H364L355 484Q325 487 290 487Q218 487 183 451T147 317V234Q147 137 182 100T290 63Q338 63 434 73V5Z" />
<glyph unicode="d" glyph-name="d" horiz-adv-x="601" d="M557 0H416V28Q345 -14 262 -14Q57 -14 57 221V316Q57 454 117 509T284 564Q345 564 413 550V695L352 700V774H503V78L557 73V0ZM413 97V475Q340 488 290 488Q216 488 182 454T147 316V221Q147 139 178
101T279 63Q343 63 413 97Z" />
<glyph unicode="e" glyph-name="e" horiz-adv-x="569" d="M523 242H144V231Q144 190 149 164T170 113T220 76T310 64Q410 64 502 80V8Q418 -14 306 -14Q165 -14 110 49T54 251V293Q54 424 112 494T287 564Q523 564 523 282V242ZM430 316V326Q430 350 428 369T417
411T394 449T352 475T288 486Q145 486 145 326V316H430Z" />
<glyph unicode="f" glyph-name="f" horiz-adv-x="423" d="M385 475H229V78L283 73V0H85V73L139 78V475L35 483V550H139V616Q139 654 143 679T161 732T204 773T281 787Q337 787 387 773V712Q380 712 362 713T326 715T293 716Q250 716 240 696T229 616V550H385V475Z" />
<glyph unicode="g" glyph-name="g" horiz-adv-x="579" d="M531 -46Q531 -223 288 -223Q160 -223 106 -179T51 -46Q51 24 102 73Q57 103 57 156Q57 212 103 243Q62 288 62 374Q62 417 72 449T106 508T176 550T290 564H534V500L476 492Q513 443 513 374Q513 184
287 184Q208 184 158 205Q135 187 135 163Q135 142 146 134T186 126H287Q335 126 368 123T434 110T487 81T519 31T531 -46ZM442 -45Q442 15 411 34T287 53H175Q140 22 140 -45Q140 -101 168 -125T288 -150Q376 -150 409 -125T442 -45ZM425 374Q425 434 397 462T287
490Q204 490 177 462T150 374T178 287T287 258Q369 258 397 286T425 374Z" />
<glyph unicode="h" glyph-name="h" horiz-adv-x="640" d="M596 0H452V348Q452 428 429 457T348 486Q267 486 187 447V78L241 73V0H44V73L98 78V695L44 700V774H187V519Q275 564 366 564Q456 564 499 512T542 351V78L596 73V0Z" />
<glyph unicode="i" glyph-name="i" horiz-adv-x="285" d="M241 0H44V74L98 78V471L44 476V550H188V78L241 74V0ZM189 652H98V774H189V652Z" />
<glyph unicode="j" glyph-name="j" horiz-adv-x="272" d="M192 -66Q192 -154 162 -188T53 -222Q8 -222 -14 -217V-151Q-9 -151 11 -151T45 -152Q81 -152 91 -135T102 -66V471L48 476V550H192V-66ZM193 652H102V774H193V652Z" />
<glyph unicode="k" glyph-name="k" horiz-adv-x="568" d="M524 0H409L187 273V0H44V73L98 78V695L44 700V774H187V302L408 550H524V476L454 471L290 289L463 78L524 73V0Z" />
<glyph unicode="l" glyph-name="l" horiz-adv-x="285" d="M241 0H44V73L98 78V695L44 700V774H187V78L241 73V0Z" />
<glyph unicode="m" glyph-name="m" horiz-adv-x="900" d="M856 0H712V365Q712 395 712 408T707 440T695 467T670 481T630 487Q570 487 491 441Q495 415 495 365V0H405V365Q405 395 405 408T401 440T389 467T367 481T330 487Q270 487 187 439V78L241 73V0H44V73L98
78V471L44 476V550H187V507Q265 564 351 564Q438 564 472 505Q562 564 642 564Q688 564 720 551T767 520T791 471T801 420T802 365V78L856 73V0Z" />
<glyph unicode="n" glyph-name="n" horiz-adv-x="640" d="M596 0H452V351Q452 429 434 458T360 487Q299 487 187 438V78L241 73V0H44V73L98 78V471L44 476V550H187V507Q298 564 370 564Q473 564 507 513T542 351V78L596 73V0Z" />
<glyph unicode="o" glyph-name="o" horiz-adv-x="582" d="M525 235Q525 114 466 50T290 -14Q175 -14 116 50T56 235V315Q56 436 115 500T290 564Q406 564 465 500T525 315V235ZM435 235V315Q435 404 401 444T290 485Q215 485 181 445T146 315V235Q146 146 180
106T290 65Q366 65 400 105T435 235Z" />
<glyph unicode="p" glyph-name="p" horiz-adv-x="599" d="M543 254Q543 177 526 123T476 40T403 -1T310 -14Q247 -14 187 2V-131L241 -136V-210H44V-136L98 -131V471L44 476V550H184V513Q257 564 344 564Q442 564 492 504T543 308V254ZM454 254V308Q454 406 424
445T330 485Q270 485 187 444V77Q262 62 310 62Q383 62 418 101T454 254Z" />
<glyph unicode="q" glyph-name="q" horiz-adv-x="601" d="M556 -210H359V-136L413 -131V25Q330 -14 246 -14Q147 -14 102 45T56 242V297Q56 449 115 506T305 564Q390 564 502 549V-132L556 -137V-210ZM412 98V480Q347 485 303 485Q260 485 234 479T186 454T155
396T146 297V242Q146 142 170 104T261 65Q331 65 412 98Z" />
<glyph unicode="r" glyph-name="r" horiz-adv-x="407" d="M382 484Q328 484 274 471T187 437V78L241 73V0H44V73L98 78V471L44 476V550H186V506Q260 564 382 564V484Z" />
<glyph unicode="s" glyph-name="s" horiz-adv-x="492" d="M442 139Q442 -14 237 -14Q186 -14 131 -6T57 8V136H127L137 67Q201 63 234 63Q301 63 326 81T352 137Q352 174 332 192T241 241L201 258Q120 292 85 330T50 427Q50 497 98 530T249 564Q299 564 352 557T423
544V427H353L343 483Q285 487 253 487Q190 487 165 475T140 427Q140 395 159 376T236 332L276 315Q374 271 408 236T442 139Z" />
<glyph unicode="t" glyph-name="t" horiz-adv-x="433" d="M383 1Q338 -14 282 -14Q207 -14 177 17T146 126V475L35 483V550H146V693H236V550H383V475H236V130Q236 83 245 71T292 58Q340 58 383 63V1Z" />
<glyph unicode="u" glyph-name="u" horiz-adv-x="640" d="M596 0H452V43Q340 -14 261 -14Q167 -14 133 41T98 199V471L44 476V550H187V199Q187 121 205 92T280 63Q340 63 452 112V471L398 476V550H542V78L596 73V0Z" />
<glyph unicode="v" glyph-name="v" horiz-adv-x="619" d="M579 476L528 471L371 0H247L90 471L40 476V550H216V483L183 480L266 212Q287 144 309 61H311Q336 156 353 212L435 480L403 483V550H579V476Z" />
<glyph unicode="w" glyph-name="w" horiz-adv-x="914" d="M387 505H527L613 209Q620 186 632 138T651 68H656Q659 121 678 210L736 479L694 483V550H874V476L825 472L718 0H588L489 330Q468 399 459 441H455Q446 399 425 330L326 0H196L89 472L40 476V550H220V483L178
479L236 210Q255 121 258 68H263Q269 90 281 138T301 209L387 505Z" />
<glyph unicode="x" glyph-name="x" horiz-adv-x="593" d="M545 0H431L290 205L153 0H40V73L101 78L239 280L109 471L47 476V550H161L306 338L443 550H553V476L491 471L353 269L484 78L545 73V0Z" />
<glyph unicode="y" glyph-name="y" horiz-adv-x="641" d="M601 476L539 471L359 -48Q343 -93 330 -120T296 -173T245 -210T174 -222Q114 -222 67 -212V-143Q124 -147 171 -147Q210 -147 228 -125T270 -39L284 0L102 471L40 476V550H227V483L196 480L282 241Q302
183 326 95H328Q345 168 370 242L448 480L415 483V550H601V476Z" />
<glyph unicode="z" glyph-name="z" horiz-adv-x="503" d="M453 0H50V101L356 475H142L133 427H63V550H452V457L141 74H373L383 136H453V0Z" />
<glyph unicode="{" glyph-name="braceleft" horiz-adv-x="412" d="M352 -210H288Q188 -210 154 -177T119 -71V113Q119 162 106 185T54 235V298Q93 325 106 348T119 419V604Q119 677 153 710T288 743H351V667H288Q235 667 222 656T208 604V419Q208 362 192 327T138
266Q175 239 191 204T208 113V-71Q208 -112 221 -123T288 -135H352V-210Z" />
<glyph unicode="|" glyph-name="bar" horiz-adv-x="316" d="M202 -210H113V743H202V-210Z" />
<glyph unicode="}" glyph-name="braceright" horiz-adv-x="412" d="M358 235Q319 208 306 185T293 113V-71Q293 -143 259 -176T124 -210H60V-135H124Q177 -135 190 -124T204 -71V113Q204 169 220 204T274 266Q236 292 220 327T204 419V604Q204 644 191 655T124
667H61V743H124Q225 743 259 710T293 604V419Q293 371 306 348T358 298V235Z" />
<glyph unicode="~" glyph-name="asciitilde" horiz-adv-x="702" d="M584 479Q584 413 560 377T473 341Q406 341 358 381L295 432Q280 445 273 450T255 460T233 464Q207 464 198 448T189 395V350H117V395Q117 534 234 534Q263 534 284 524T337 488L397 440Q434
411 469 411Q496 411 504 427T512 479V526H584V479Z" />
</font>
</defs>
</svg>
