<?xml version="1.0" standalone="no"?> <!DOCTYPE svg PUBLIC "-//W3C//DTD SVG 1.0//EN" "http://www.w3.org/TR/2001/REC-SVG-20010904/DTD/svg10.dtd" > <svg xmlns="http://www.w3.org/2000/svg" width="100%" height="100%">
<defs >
<font id="sohostd-light" horiz-adv-x="455" ><font-face
    font-family="Soho Std Light"
    units-per-em="1000"
    panose-1="2 4 3 3 3 5 6 2 2 4"
    ascent="773"
    descent="-227"
    alphabetic="0" />
<missing-glyph horiz-adv-x="201" />
<glyph unicode=" " glyph-name="space" horiz-adv-x="201" />
<glyph unicode="!" glyph-name="exclam" horiz-adv-x="219" d="M143 0H77V127H143V0ZM145 765L139 192H81L75 765H145Z" />
<glyph unicode="&quot;" glyph-name="quotedbl" horiz-adv-x="314" d="M294 759L259 519H209L228 759H294ZM105 759H39L20 519H70L105 759Z" />
<glyph unicode="#" glyph-name="numbersign" horiz-adv-x="717" d="M646 205H492L469 0H410L433 205H243L221 0H162L184 205H78V262H190L213 474H78V531H220L244 743H303L280 531H468L492 743H551L528 531H646V474H522L499 262H646V205ZM462 474H273L250 262H439L462
474Z" />
<glyph unicode="$" glyph-name="dollar" horiz-adv-x="580" d="M531 185Q531 100 475 50T326 -9V-119H263V-12Q168 -9 86 6V137H139L146 52Q216 46 289 46Q367 46 415 81T463 185Q463 237 434 270T331 338L230 384Q148 421 109 466T69 584Q69 738 269 752V855H332V754Q422
753 506 737V610H454L447 690Q380 697 308 697Q223 697 180 671T137 584Q137 535 165 503T260 440L361 394Q451 353 491 307T531 185Z" />
<glyph unicode="%" glyph-name="percent" horiz-adv-x="1003" d="M953 190Q953 89 910 39T787 -11T664 39T620 190V247Q620 347 663 397T787 447T910 397T953 247V190ZM894 189V247Q894 329 866 362T787 396T709 363T680 247V189Q680 107 708 74T787 40T865 73T894
189ZM773 743L299 0H232L706 743H773ZM385 497Q385 296 219 296Q135 296 94 348T53 497V554Q53 754 219 754T385 554V497ZM326 497V554Q326 636 300 670T219 704Q166 704 139 669T112 554V497Q112 415 138 381T219 347T299 381T326 497Z" />
<glyph unicode="&amp;" glyph-name="ampersand" horiz-adv-x="703" d="M673 380L611 376Q611 200 553 110L650 13V0H565L509 56Q433 -13 284 -13Q180 -13 115 30T50 173V178Q51 245 79 289T190 376L181 385Q127 439 103 485T78 594V598Q78 755 288 755Q409 755
491 737V605H439L432 691Q369 697 290 697Q220 697 183 676T145 598V594Q145 544 165 512T243 421L508 155Q549 229 549 376L486 380V431H673V380ZM467 98L234 332Q168 299 143 266T118 178V173Q118 106 165 75T283 44Q405 44 467 98Z" />
<glyph unicode="&apos;" glyph-name="quotesingle" horiz-adv-x="125" d="M105 759L70 519H20L39 759H105Z" />
<glyph unicode="(" glyph-name="parenleft" horiz-adv-x="319" d="M287 -207H223Q156 -128 108 -7T60 264V271Q60 422 108 543T223 743H287Q126 536 126 271V264Q126 -1 287 -207Z" />
<glyph unicode=")" glyph-name="parenright" horiz-adv-x="315" d="M258 264Q258 114 210 -7T96 -207H32Q193 -1 193 264V271Q193 536 32 743H96Q162 665 210 544T258 271V264Z" />
<glyph unicode="*" glyph-name="asterisk" horiz-adv-x="503" d="M445 611L359 583Q317 570 293 566Q312 545 336 513L389 440L342 406L289 479Q269 507 252 536Q231 502 215 480L162 406L115 440L168 514Q205 560 211 566Q182 572 146 584L60 611L77 666L163
639Q204 625 227 615Q224 647 224 681V773H281V681Q281 643 277 614Q297 623 341 638L427 667L445 611Z" />
<glyph unicode="+" glyph-name="plus" horiz-adv-x="684" d="M592 365H370V141H316V365H92V419H316V642H370V419H592V365Z" />
<glyph unicode="," glyph-name="comma" horiz-adv-x="231" d="M183 136L85 -86H25L107 136H183Z" />
<glyph unicode="-" glyph-name="hyphen" horiz-adv-x="383" d="M314 263H70V318H314V263Z" />
<glyph unicode="." glyph-name="period" horiz-adv-x="200" d="M134 0H69V136H134V0Z" />
<glyph unicode="/" glyph-name="slash" horiz-adv-x="393" d="M376 743L77 0H14L314 743H376Z" />
<glyph unicode="0" glyph-name="zero" horiz-adv-x="616" d="M561 313Q561 148 496 68T308 -13T121 67T55 313V429Q55 594 120 674T308 755T495 675T561 429V313ZM494 313V429Q494 697 308 697T122 429V313Q122 44 308 44T494 313Z" />
<glyph unicode="1" glyph-name="one" horiz-adv-x="486" d="M436 0H53V55L212 59V680L52 625V684L228 748H278V59L436 55V0Z" />
<glyph unicode="2" glyph-name="two" horiz-adv-x="572" d="M510 0H61V72Q61 138 72 183T112 266T181 331T289 397Q392 454 422 488T452 582Q452 644 408 670T263 697Q205 697 127 689L121 605H69V734Q167 755 266 755Q395 755 456 713T518 581Q518 503 480 456T326
345Q201 276 164 227T126 73V60H451L458 144H510V0Z" />
<glyph unicode="3" glyph-name="three" horiz-adv-x="572" d="M516 196Q516 87 454 37T262 -13Q153 -13 66 8V142H118L125 50Q197 44 261 44Q363 44 406 78T450 197V225Q450 287 423 322T313 358H94V415H313Q396 415 423 451T450 551V565Q450 638 410 667T261
697Q199 697 127 691L120 607H68V736Q90 741 151 748T262 755Q397 755 457 711T517 565V551Q517 422 416 387Q516 350 516 225V196Z" />
<glyph unicode="4" glyph-name="four" horiz-adv-x="627" d="M585 207H466V57L528 54V0H338V54L399 57V207H39V275L390 744H466V265H585V207ZM400 265V655L107 265H400Z" />
<glyph unicode="5" glyph-name="five" horiz-adv-x="569" d="M514 206Q514 93 451 41T253 -12Q138 -12 50 9V139H102L109 53Q189 45 251 45Q361 45 404 82T448 206V233Q448 319 403 351T244 384H66L98 743H485V606H433L426 684H155L133 441H246Q385 441 449 394T514
233V206Z" />
<glyph unicode="6" glyph-name="six" horiz-adv-x="614" d="M559 221Q559 154 536 106T475 33T396 -2T312 -13Q255 -13 213 -1T133 41T75 133T55 284V476Q55 617 116 686T326 755Q435 755 528 735V607H475L468 690Q384 697 328 697Q263 697 221 683T158 637T130
570T122 478V430Q218 456 314 456Q365 456 404 448T481 420T538 359T559 258V221ZM492 221V255Q492 341 446 371T311 401Q210 401 122 378V280Q122 149 170 97T312 45Q393 45 442 88T492 221Z" />
<glyph unicode="7" glyph-name="seven" horiz-adv-x="550" d="M514 673L186 0H111L451 684H107L101 606H49V743H514V673Z" />
<glyph unicode="8" glyph-name="eight" horiz-adv-x="632" d="M574 211Q574 154 561 113T526 48T470 10T401 -8T318 -13H313Q266 -13 231 -9T162 10T107 48T72 113T58 212V219Q58 348 151 387Q60 424 60 547V558Q60 667 127 711T313 755H318Q438 755 505 711T572
558V547Q572 424 480 387Q574 348 574 220V211ZM507 211V220Q507 289 481 324T387 359H244Q177 359 151 324T124 219V212Q124 113 169 79T313 45H318Q417 45 462 79T507 211ZM506 547V558Q506 638 460 667T318 697H313Q218 697 172 668T126 558V547Q126 485 152
451T244 416H387Q453 416 479 450T506 547Z" />
<glyph unicode="9" glyph-name="nine" horiz-adv-x="614" d="M559 266Q559 125 498 56T287 -13Q183 -13 85 8V137H138L145 53Q217 45 286 45Q351 45 392 59T455 105T484 173T492 265V312Q396 286 300 286Q249 286 210 294T133 322T75 383T55 485V522Q55 589 78
637T139 709T218 744T302 755Q347 755 382 749T451 723T508 671T545 585T559 458V266ZM492 364V463Q492 593 443 645T302 698Q221 698 172 654T122 522V488Q122 401 168 371T303 341Q399 341 492 364Z" />
<glyph unicode=":" glyph-name="colon" horiz-adv-x="205" d="M137 0H71V136H137V0ZM137 546V410H71V546H137Z" />
<glyph unicode=";" glyph-name="semicolon" horiz-adv-x="224" d="M162 136L63 -86H4L86 136H162ZM154 410H88V546H154V410Z" />
<glyph unicode="&lt;" glyph-name="less" horiz-adv-x="666" d="M527 139H437L150 391L437 642H527L241 391L527 139Z" />
<glyph unicode="=" glyph-name="equal" horiz-adv-x="677" d="M565 252H118V307H565V252ZM565 477H118V532H565V477Z" />
<glyph unicode="&gt;" glyph-name="greater" horiz-adv-x="666" d="M527 391L241 139H151L438 391L151 642H241L527 391Z" />
<glyph unicode="?" glyph-name="question" horiz-adv-x="457" d="M199 0H133V129H199V0ZM401 615Q401 563 380 521T298 421Q231 355 214 322T197 231V193H133V231Q133 295 152 334T239 443Q298 502 316 536T334 615V621Q334 677 300 697T194 717Q143 717 102 713L95
636H42V755Q124 775 199 775Q297 775 349 740T401 621V615Z" />
<glyph unicode="@" glyph-name="at" horiz-adv-x="811" d="M765 377Q765 59 416 59Q314 59 269 95T223 212Q223 242 227 286Q237 396 285 439T420 483Q488 483 565 465L530 122Q713 159 713 378Q713 608 445 608Q264 608 184 497T103 179Q103 59 168 -3T376 -65Q479
-65 542 -55V-93Q447 -108 375 -108Q212 -108 132 -34T52 180Q52 405 147 529T445 653Q606 653 685 581T765 377ZM498 423Q465 428 421 428Q362 428 330 399T288 284Q284 239 284 211Q284 154 313 132T415 110Q450 110 467 111L498 423Z" />
<glyph unicode="A" glyph-name="A" horiz-adv-x="724" d="M696 0H517V53L570 57L502 263H220L153 57L205 53V0H28V54L81 57L294 686L235 689V743H408L641 57L696 54V0ZM482 324L397 573Q374 642 365 688H358Q347 632 326 573L240 324H482Z" />
<glyph unicode="B" glyph-name="B" horiz-adv-x="631" d="M583 203Q583 86 509 41T287 -4Q237 -4 161 -2T42 0V55L99 59V684L42 688V743Q84 743 161 744T289 746Q439 746 509 707T579 558V549Q579 493 551 449T459 386Q583 353 583 216V203ZM516 203V216Q516 282
477 320T334 359H165V59Q243 55 287 55Q407 55 461 86T516 203ZM512 549V558Q512 636 461 661T289 687Q228 687 165 684V417H334Q436 417 474 452T512 549Z" />
<glyph unicode="C" glyph-name="C" horiz-adv-x="565" d="M514 3Q434 -13 342 -13Q200 -13 125 65T49 329V414Q49 600 124 677T342 755Q424 755 514 740V610H461L454 690Q382 695 342 695Q224 695 170 631T116 414V329Q116 177 170 112T342 47Q384 47 454 52L461
133H514V3Z" />
<glyph unicode="D" glyph-name="D" horiz-adv-x="669" d="M618 328Q618 162 542 79T299 -4Q251 -4 169 -2T42 0V54L99 59V684L42 689V743Q86 743 166 745T299 747Q463 747 540 664T618 416V328ZM550 328V416Q550 563 488 625T294 687Q226 687 165 684V59Q285 56
294 56Q424 56 487 118T550 328Z" />
<glyph unicode="E" glyph-name="E" horiz-adv-x="573" d="M527 0H42V54L99 57V686L42 689V743H527V610H474L467 684H165V418H503V358H165V59H467L474 135H527V0Z" />
<glyph unicode="F" glyph-name="F" horiz-adv-x="562" d="M503 358H165V57L224 54V0H42V54L99 57V686L42 689V743H527V608H474L467 684H165V418H503V358Z" />
<glyph unicode="G" glyph-name="G" horiz-adv-x="611" d="M548 5Q437 -13 342 -13Q49 -13 49 326V417Q49 755 343 755Q459 755 548 738V608H495L488 688Q406 695 351 695Q295 695 255 683T182 641T133 555T117 417V326Q117 173 175 111T350 48Q417 48 482 53V325L366
330V384H548V5Z" />
<glyph unicode="H" glyph-name="H" horiz-adv-x="738" d="M224 689L167 686V426H571V686L514 689V743H695V689L638 686V57L695 54V0H514V54L571 57V365H167V57L224 54V0H43V54L100 57V686L43 689V743H224V689Z" />
<glyph unicode="I" glyph-name="I" horiz-adv-x="272" d="M226 0H46V54L103 57V686L46 689V743H226V689L169 686V57L226 54V0Z" />
<glyph unicode="J" glyph-name="J" horiz-adv-x="268" d="M223 689L166 686V-56Q166 -137 137 -174T26 -212Q-13 -212 -43 -206V-155Q-19 -156 23 -156Q72 -156 86 -134T100 -56V686L43 689V743H223V689Z" />
<glyph unicode="K" glyph-name="K" horiz-adv-x="637" d="M603 0H505L167 364V57L225 54V0H44V54L101 57V686L44 689V743H225V689L167 686V390L509 743H601V689L544 686L244 378L547 56L603 54V0Z" />
<glyph unicode="L" glyph-name="L" horiz-adv-x="562" d="M521 0H44V54L101 57V686L44 689V743H226V689L167 686V59H462L468 139H521V0Z" />
<glyph unicode="M" glyph-name="M" horiz-adv-x="821" d="M780 0H599V54L657 57V535Q657 604 660 669H658Q608 571 601 560L451 305H369L220 560Q211 576 202 594T181 635T164 669H162Q165 603 165 535V57L222 54V0H42V54L99 57V686L42 689V743H186L364 431Q380
404 409 347H411Q440 404 456 430L636 743H780V689L723 686V57L780 54V0Z" />
<glyph unicode="N" glyph-name="N" horiz-adv-x="723" d="M681 689L624 686V-1H530L214 578Q163 671 159 680H157Q162 610 162 553V57L219 54V0H42V54L99 57V686L42 689V743H194L508 174Q547 102 563 70H564Q560 160 560 201V686L503 689V743H681V689Z" />
<glyph unicode="O" glyph-name="O" horiz-adv-x="660" d="M611 332Q611 159 539 73T330 -13Q195 -13 122 73T49 332V410Q49 584 121 669T330 755T538 670T611 410V332ZM543 332V410Q543 695 330 695T117 410V332Q117 47 330 47T543 332Z" />
<glyph unicode="P" glyph-name="P" horiz-adv-x="615" d="M572 520Q572 399 498 351T282 302Q207 302 166 303V57L225 54V0H42V54L99 57V686L42 689V743Q85 743 162 745T284 747Q426 747 498 700T572 533V520ZM505 520V533Q504 622 453 654T284 687Q265 687 166
684V362Q208 361 282 361Q400 361 452 396T505 520Z" />
<glyph unicode="Q" glyph-name="Q" horiz-adv-x="660" d="M611 332Q611 170 547 85T363 -11V-69Q363 -109 377 -123T438 -138H522V-184Q458 -192 421 -192Q355 -192 327 -165T298 -69V-11Q49 11 49 332V410Q49 584 121 669T330 755T538 670T611 410V332ZM543 332V410Q543
695 330 695T117 410V332Q117 47 330 47T543 332Z" />
<glyph unicode="R" glyph-name="R" horiz-adv-x="661" d="M635 0H537L351 303Q329 302 281 302Q198 302 166 303V57L223 54V0H42V54L99 57V686L42 689V743Q87 743 163 745T280 747Q422 747 497 699T572 532V524Q572 436 535 387T422 317L581 56L635 54V0ZM505
524V532Q505 621 452 654T280 687Q274 687 166 684V362Q201 361 281 361Q399 361 452 397T505 524Z" />
<glyph unicode="S" glyph-name="S" horiz-adv-x="554" d="M508 185Q508 88 444 38T268 -13Q153 -13 63 5V136H115L122 51Q199 46 268 46Q347 46 394 79T441 185Q441 239 412 271T309 338L208 384Q126 421 86 466T46 584Q46 755 282 755Q393 755 483 737V610H431L423
691Q347 697 285 697Q200 697 157 671T114 584Q114 534 142 503T238 440L339 394Q429 353 468 307T508 185Z" />
<glyph unicode="T" glyph-name="T" horiz-adv-x="614" d="M581 610H529L522 684H340V56L402 52V0H211V52L274 56V684H92L86 610H33V743H581V610Z" />
<glyph unicode="U" glyph-name="U" horiz-adv-x="725" d="M683 689L624 686V319Q624 153 561 71T363 -12Q228 -12 165 70T101 319V686L42 689V743H225V689L168 686V326Q168 176 210 113T363 49Q472 49 515 113T558 326V686L500 689V743H683V689Z" />
<glyph unicode="V" glyph-name="V" horiz-adv-x="729" d="M699 689L644 686L410 0H318L84 686L30 689V743H211V690L155 687L329 170Q337 146 349 102T364 51H365Q395 154 400 170L573 687L519 690V743H699V689Z" />
<glyph unicode="W" glyph-name="W" horiz-adv-x="941" d="M910 689L855 686L719 0H617L496 455Q487 487 472 559H469Q466 548 458 511T444 455L325 0H221L86 686L30 689V743H211V690L154 686L250 186Q256 157 273 53H277Q278 58 287 107T305 184L421 612H521L637
182Q644 156 653 111T665 53H669Q679 116 692 186L787 686L731 690V743H910V689Z" />
<glyph unicode="X" glyph-name="X" horiz-adv-x="687" d="M660 0H472V54L521 57L341 319L163 57L213 54V0H27V55L86 58L302 377L91 686L33 689V743H219V690L170 687L346 431L519 687L468 690V743H654V689L596 686L385 374L600 58L660 55V0Z" />
<glyph unicode="Y" glyph-name="Y" horiz-adv-x="630" d="M600 689L547 686L348 302V59L408 56V0H221V56L281 59V300L81 686L30 689V743H202V690L154 687L265 471Q286 430 314 369H316Q331 405 365 471L476 687L428 690V743H600V689Z" />
<glyph unicode="Z" glyph-name="Z" horiz-adv-x="608" d="M559 0H49V73L471 684H124L118 610H66V743H544V671L122 59H500L507 137H559V0Z" />
<glyph unicode="[" glyph-name="bracketleft" horiz-adv-x="369" d="M322 -208H105V743H322V687H170V-152H322V-208Z" />
<glyph unicode="\" glyph-name="backslash" horiz-adv-x="417" d="M391 0H327L23 743H86L391 0Z" />
<glyph unicode="]" glyph-name="bracketright" horiz-adv-x="366" d="M265 -208H47V-152H200V687H47V743H265V-208Z" />
<glyph unicode="^" glyph-name="asciicircum" horiz-adv-x="677" d="M580 406H508L340 683L173 406H100L286 716H395L580 406Z" />
<glyph unicode="_" glyph-name="underscore" horiz-adv-x="563" d="M570 -99H-15V-54H570V-99Z" />
<glyph unicode="`" glyph-name="grave" horiz-adv-x="420" d="M270 616H203L56 770H135L270 616Z" />
<glyph unicode="a" glyph-name="a" horiz-adv-x="539" d="M507 0H389V39Q305 -13 209 -13Q46 -13 46 144V158Q46 256 105 290T293 324H386V370Q386 450 359 475T242 501Q196 501 140 497L134 436H83V538Q183 557 246 557Q311 557 351 547T414 512T444 455T452
370V57L507 54V0ZM386 87V273H293Q190 273 151 251T111 158V139Q111 85 139 62T221 39Q310 39 386 87Z" />
<glyph unicode="b" glyph-name="b" horiz-adv-x="544" d="M495 244Q495 107 438 47T258 -13Q177 -13 70 -1V715L15 718V773H136V525Q206 558 286 558Q395 558 445 501T495 314V244ZM429 244V314Q429 418 395 459T277 501Q197 501 136 472V51Q214 45 259 45Q350
45 389 89T429 244Z" />
<glyph unicode="c" glyph-name="c" horiz-adv-x="462" d="M417 4Q340 -13 268 -13Q156 -13 104 48T51 243V302Q51 433 104 495T268 557Q347 557 417 540V434H365L359 496Q326 500 276 500Q194 500 156 458T117 302V243Q117 127 155 85T276 43Q324 43 417 54V4Z" />
<glyph unicode="d" glyph-name="d" horiz-adv-x="568" d="M530 0H412V32Q334 -13 251 -13Q151 -13 101 46T51 234V302Q51 442 108 499T277 557Q337 557 410 545V715L347 718V773H475V57L530 54V0ZM410 83V490Q338 501 281 501Q195 501 156 459T117 302V234Q117
132 151 88T262 44Q330 44 410 83Z" />
<glyph unicode="e" glyph-name="e" horiz-adv-x="542" d="M499 250H114V237Q114 137 152 91T296 44Q393 44 482 60V7Q395 -13 293 -13Q158 -13 104 49T49 251V289Q49 557 274 557Q390 557 444 488T499 282V250ZM432 304V313Q432 353 426 384T403 442T354 485T274
500Q226 500 194 485T145 441T122 383T115 313V304H432Z" />
<glyph unicode="f" glyph-name="f" horiz-adv-x="401" d="M369 488H202V57L260 54V0H79V54L137 57V488L29 493V543H137V618Q137 700 164 741T274 783Q329 783 371 772V727Q364 727 346 728T311 730T281 731Q231 731 217 708T202 618V543H369V488Z" />
<glyph unicode="g" glyph-name="g" horiz-adv-x="554" d="M506 -45Q506 -219 274 -219Q150 -219 98 -175T45 -45Q45 29 98 80Q50 104 50 158Q50 210 96 241Q55 282 55 371Q55 458 101 507T273 557H503V509L430 504Q487 469 487 371Q487 189 271 189Q187 189 136
212Q107 192 107 163Q107 119 163 119H271Q395 119 450 86T506 -45ZM442 -44Q441 22 407 44T271 66H152Q109 27 109 -44Q109 -106 143 -135T274 -165Q368 -165 405 -135T442 -44ZM423 371Q423 436 392 469T271 503Q222 503 190 493T144 463T124 423T119 371Q119
308 150 276T271 243T392 275T423 371Z" />
<glyph unicode="h" glyph-name="h" horiz-adv-x="613" d="M574 0H453V342Q453 432 426 466T333 500Q248 500 160 454V57L215 54V0H39V54L95 57V715L39 718V773H160V507Q251 557 345 557Q436 557 477 506T518 344V57L574 54V0Z" />
<glyph unicode="i" glyph-name="i" horiz-adv-x="256" d="M216 0H40V54L96 57V485L40 488V543H161V57L216 54V0ZM162 649H95V773H162V649Z" />
<glyph unicode="j" glyph-name="j" horiz-adv-x="223" d="M163 -73Q163 -153 137 -186T40 -219Q15 -219 -25 -214V-165Q15 -167 34 -167Q73 -167 85 -147T98 -73V485L43 488V543H163V-73ZM164 648H97V773H164V648Z" />
<glyph unicode="k" glyph-name="k" horiz-adv-x="530" d="M498 0H400L159 275V0H39V54L94 57V715L39 718V773H159V295L399 543H497V489L432 485L235 286L439 57L498 54V0Z" />
<glyph unicode="l" glyph-name="l" horiz-adv-x="256" d="M216 0H40V54L96 57V715L40 718V773H161V57L216 54V0Z" />
<glyph unicode="m" glyph-name="m" horiz-adv-x="868" d="M828 0H708V363Q708 437 691 469T613 501Q543 501 460 449Q467 415 467 363V0H401V363Q401 439 386 470T311 501Q249 501 160 449V57L214 54V0H40V54L95 57V485L39 489V543H159V500Q244 557 325 557Q414
557 446 496Q537 557 621 557Q663 557 692 545T737 516T761 470T771 419T773 363V57L828 54V0Z" />
<glyph unicode="n" glyph-name="n" horiz-adv-x="611" d="M572 0H452V344Q452 432 428 466T340 500Q270 500 159 448V57L213 54V0H39V54L94 57V485L39 489V543H158V500Q270 557 346 557Q446 557 481 507T517 344V57L572 54V0Z" />
<glyph unicode="o" glyph-name="o" horiz-adv-x="553" d="M503 244Q503 -13 276 -13Q52 -13 50 244V301Q50 557 276 557Q503 557 503 301V244ZM438 244V301Q438 406 400 452T276 499Q192 499 154 453T116 301V244Q116 139 154 92T276 44Q361 44 399 91T438 244Z" />
<glyph unicode="p" glyph-name="p" horiz-adv-x="569" d="M215 -209H39V-155L94 -151V485L39 489V543H157V504Q238 557 326 557Q425 557 472 498T519 309V243Q519 106 460 47T288 -13Q237 -13 159 0V-151L215 -155V-209ZM454 243V309Q454 413 423 456T317 499Q251
499 159 453V56Q234 43 288 43Q373 43 413 87T454 243Z" />
<glyph unicode="q" glyph-name="q" horiz-adv-x="552" d="M528 -209H353V-155L408 -152V21Q333 -13 247 -13Q144 -13 97 45T49 235V302Q49 445 105 501T290 557Q371 557 473 545V-152L528 -155V-209ZM408 76V494Q343 499 289 499Q193 499 154 460T114 302V235Q114
130 146 88T257 45Q329 45 408 76Z" />
<glyph unicode="r" glyph-name="r" horiz-adv-x="390" d="M363 499Q240 499 159 448V57L218 54V0H39V54L94 57V485L39 489V543H158V499Q240 557 363 557V499Z" />
<glyph unicode="s" glyph-name="s" horiz-adv-x="467" d="M423 134Q423 70 377 29T226 -13Q119 -13 51 8V119H103L109 51Q179 43 224 43Q357 43 357 133Q357 173 334 194T235 249L197 266Q114 303 80 336T45 425Q45 557 239 557Q341 557 403 538V436H351L345 494Q285
500 241 500Q171 500 141 484T110 425Q110 390 133 371T225 320L264 302Q357 259 390 226T423 134Z" />
<glyph unicode="t" glyph-name="t" horiz-adv-x="407" d="M367 -1Q317 -13 270 -13Q201 -13 174 17T146 122V488L29 494V543H146V689H212V543H367V488H212V125Q212 72 224 56T277 40Q327 40 367 45V-1Z" />
<glyph unicode="u" glyph-name="u" horiz-adv-x="612" d="M573 0H452V44Q343 -13 259 -13Q165 -13 130 40T94 199V486L39 489V543H159V199Q159 111 183 77T272 43Q343 43 452 96V486L397 489V543H518V57L573 54V0Z" />
<glyph unicode="v" glyph-name="v" horiz-adv-x="592" d="M558 489L507 486L339 0H250L82 486L31 489V543H202V491L152 488L254 180Q267 141 295 45H297Q323 135 338 180L439 488L389 491V543H558V489Z" />
<glyph unicode="w" glyph-name="w" horiz-adv-x="884" d="M848 489L798 486L682 0H593L474 344Q462 381 442 449H438Q422 391 406 344L287 0H198L82 486L32 489V543H199V491L148 488L218 178Q223 156 231 115T244 55H249Q283 171 285 177L398 502H485L598 178Q605
158 611 138T624 94T635 55H639Q651 116 665 178L734 488L684 491V543H848V489Z" />
<glyph unicode="x" glyph-name="x" horiz-adv-x="585" d="M550 0H452L288 226L125 0H34V54L91 57L251 278L100 486L41 489V543H140L294 332L445 543H540V489L479 486L331 280L493 57L550 54V0Z" />
<glyph unicode="y" glyph-name="y" horiz-adv-x="610" d="M581 489L518 486L332 -42Q297 -141 261 -180T148 -219Q104 -219 54 -210V-160Q114 -163 146 -163Q192 -163 216 -137T268 -34L280 0L93 486L30 489V543H213V491L161 488L268 202Q277 178 291 137T311
77H313Q347 189 350 199L449 488L399 491V543H581V489Z" />
<glyph unicode="z" glyph-name="z" horiz-adv-x="480" d="M436 0H44V72L363 488H116L109 436H57V543H435V476L113 55H377L384 117H436V0Z" />
<glyph unicode="{" glyph-name="braceleft" horiz-adv-x="389" d="M341 -209H286Q191 -209 159 -176T127 -73V109Q127 161 113 187T57 243V291Q99 320 113 346T127 425V607Q127 678 158 710T286 743H340V687H286Q225 687 209 671T192 607V425Q192 368 175 332T117
267Q158 238 175 202T192 109V-73Q192 -121 208 -137T286 -154H341V-209Z" />
<glyph unicode="|" glyph-name="bar" horiz-adv-x="270" d="M169 -209H104V743H169V-209Z" />
<glyph unicode="}" glyph-name="braceright" horiz-adv-x="389" d="M332 243Q290 214 276 188T262 109V-73Q262 -143 231 -176T103 -209H48V-154H103Q165 -154 181 -138T197 -73V109Q197 166 214 202T273 267Q232 295 215 331T198 425V607Q198 654 182 670T103
687H49V743H103Q199 743 230 711T262 607V425Q262 373 276 347T332 291V243Z" />
<glyph unicode="~" glyph-name="asciitilde" horiz-adv-x="671" d="M560 482Q560 413 538 378T457 342T350 388L288 446Q249 482 217 482Q186 482 176 462T166 393V351H112V393Q112 462 135 498T217 534Q270 534 321 487L382 431Q422 394 457 394Q488 394 497
414T507 481V524H560V482Z" />
</font>
</defs>
</svg>
