<?xml version="1.0" standalone="no"?> <!DOCTYPE svg PUBLIC "-//W3C//DTD SVG 1.0//EN" "http://www.w3.org/TR/2001/REC-SVG-20010904/DTD/svg10.dtd" > <svg xmlns="http://www.w3.org/2000/svg" width="100%" height="100%">
<defs >
<font id="sohostd-bold" horiz-adv-x="533" ><font-face
    font-family="Soho Std"
    units-per-em="1000"
    panose-1="2 4 7 3 5 5 6 2 2 4"
    ascent="780"
    descent="-220"
    alphabetic="0" />
<missing-glyph horiz-adv-x="202" />
<glyph unicode=" " glyph-name="space" horiz-adv-x="202" />
<glyph unicode="!" glyph-name="exclam" horiz-adv-x="314" d="M246 0H67V166H246V0ZM254 780L237 224H77L60 780H254Z" />
<glyph unicode="&quot;" glyph-name="quotedbl" horiz-adv-x="481" d="M461 771L392 508H270L308 771H461ZM212 771H59L20 508H143L212 771Z" />
<glyph unicode="#" glyph-name="numbersign" horiz-adv-x="771" d="M706 177H574L554 0H410L430 177H293L274 0H130L150 177H65V287H161L179 444H65V554H191L213 743H357L336 554H472L493 743H637L616 554H706V444H604L587 287H706V177ZM459 444H323L306 287H442L459
444Z" />
<glyph unicode="$" glyph-name="dollar" horiz-adv-x="672" d="M615 208Q615 116 562 61T411 -9V-127H264V-14Q176 -10 77 7V186H190L200 126Q268 124 310 124Q428 124 428 202Q428 231 411 248T343 289L233 341Q187 363 161 379T107 419T69 477T57 554Q57 725
264 752V862H411V757Q521 751 589 734V562H476L466 618Q419 622 359 622Q300 622 272 608T243 557Q243 530 260 513T327 474L431 428Q527 385 571 338T615 208Z" />
<glyph unicode="%" glyph-name="percent" horiz-adv-x="1155" d="M1106 205Q1106 -11 910 -11Q713 -11 713 205V241Q713 456 910 456Q1106 456 1106 241V205ZM976 205V241Q976 310 960 334T909 359Q876 359 860 335T843 241V205Q843 137 859 112T909 87Q943 87
959 112T976 205ZM896 746L400 0H253L750 746H896ZM441 508Q441 291 245 291T49 508V543Q49 759 245 759T441 543V508ZM311 507V543Q311 612 296 637T245 662T194 637T179 543V507Q179 438 194 414T245 389T296 413T311 507Z" />
<glyph unicode="&amp;" glyph-name="ampersand" horiz-adv-x="818" d="M777 368L729 359Q729 218 669 130L769 39V0H596L555 35Q478 -15 332 -15Q50 -15 50 184V191Q50 259 81 302T190 386L181 396Q132 447 109 488T86 577V586Q86 677 151 718T347 760Q481 760
595 734V564H482L472 623Q434 625 358 625Q310 625 287 614T263 571V564Q263 535 276 515T329 463L570 229Q593 283 593 360L546 368V452H777V368ZM464 123L295 282Q258 264 244 243T229 190V183Q229 140 262 120T348 100Q416 100 464 123Z" />
<glyph unicode="&apos;" glyph-name="quotesingle" horiz-adv-x="232" d="M212 771L143 508H20L59 771H212Z" />
<glyph unicode="(" glyph-name="parenleft" horiz-adv-x="401" d="M364 -201H206Q144 -118 100 2T56 267V275Q56 419 100 540T206 743H364Q228 529 228 275V267Q228 13 364 -201Z" />
<glyph unicode=")" glyph-name="parenright" horiz-adv-x="401" d="M344 267Q344 123 301 3T196 -201H37Q173 13 173 267V275Q173 529 37 743H196Q257 661 300 540T344 275V267Z" />
<glyph unicode="*" glyph-name="asterisk" horiz-adv-x="552" d="M497 575L436 557Q397 545 362 542Q384 524 413 489L451 440L351 367L313 415Q295 438 276 478Q258 442 238 416L201 367L101 440L139 489Q162 519 189 542Q147 547 116 557L55 576L93 694L154
676Q188 665 222 646Q215 681 215 717V778H338V717Q338 684 329 645Q362 663 398 675L459 694L497 575Z" />
<glyph unicode="+" glyph-name="plus" horiz-adv-x="679" d="M604 318H406V126H274V318H74V453H274V645H406V453H604V318Z" />
<glyph unicode="," glyph-name="comma" horiz-adv-x="351" d="M305 166L170 -95H29L124 166H305Z" />
<glyph unicode="-" glyph-name="hyphen" horiz-adv-x="378" d="M319 233H59V357H319V233Z" />
<glyph unicode="." glyph-name="period" horiz-adv-x="304" d="M240 0H65V166H240V0Z" />
<glyph unicode="/" glyph-name="slash" horiz-adv-x="497" d="M477 743L198 0H20L299 743H477Z" />
<glyph unicode="0" glyph-name="zero" horiz-adv-x="708" d="M658 328Q658 -17 354 -17T50 328V415Q50 760 354 760T658 415V328ZM470 328V415Q470 529 441 572T354 616T267 573T238 415V328Q238 214 267 170T354 126T441 170T470 328Z" />
<glyph unicode="1" glyph-name="one" horiz-adv-x="606" d="M556 0H51V129L211 137V581L51 539V675L262 746H397V137L556 129V0Z" />
<glyph unicode="2" glyph-name="two" horiz-adv-x="653" d="M590 0H54V92Q54 225 100 292T277 428Q367 474 390 497T414 558Q414 596 385 610T281 625Q254 625 184 621L175 560H63V728Q101 741 175 750T312 760Q464 760 534 714T604 568Q604 492 559 440T398 326Q293
272 265 242T237 150V141H469L478 198H590V0Z" />
<glyph unicode="3" glyph-name="three" horiz-adv-x="654" d="M604 205Q604 87 532 35T307 -17Q239 -17 167 -6T60 17V187H173L182 123Q233 120 288 120Q359 120 388 139T418 214V230Q418 275 396 295T307 316H105V442H308Q374 442 396 463T418 529V539Q418 589
391 606T288 623Q232 623 184 620L175 560H62V727Q92 738 165 749T307 760Q455 760 529 713T604 554V542Q604 427 515 380Q604 338 604 223V205Z" />
<glyph unicode="4" glyph-name="four" horiz-adv-x="712" d="M669 167H570V88L617 83V0H336V83L383 88V167H42V298L411 743H570V298H669V167ZM392 298V542L191 298H392Z" />
<glyph unicode="5" glyph-name="five" horiz-adv-x="643" d="M593 221Q593 95 517 39T294 -17Q158 -17 48 12V186H159L168 121Q213 118 256 118Q339 118 371 139T404 219V238Q404 293 375 312T259 332H55L90 743H570V557H458L450 606H240L227 461H297Q463 461
528 410T593 240V221Z" />
<glyph unicode="6" glyph-name="six" horiz-adv-x="690" d="M640 230Q640 162 617 113T551 36T459 -4T349 -17Q194 -17 122 56T50 292V456Q50 532 63 584T109 678T203 740T356 760Q487 760 603 731V562H492L482 621Q386 624 378 624Q330 624 301 616T258 589T239
546T234 484V460Q297 474 367 474Q430 474 476 466T561 435T620 369T640 261V230ZM456 230V258Q456 317 431 337T347 358Q287 358 234 346V260Q234 177 262 145T350 113Q399 113 427 142T456 230Z" />
<glyph unicode="7" glyph-name="seven" horiz-adv-x="652" d="M612 592L285 0H87L428 606H176L168 553H56V743H612V592Z" />
<glyph unicode="8" glyph-name="eight" horiz-adv-x="716" d="M664 213Q664 139 641 91T572 21T479 -9T361 -17H355Q285 -17 238 -10T145 20T76 91T53 213V220Q53 330 134 383Q55 435 55 541V551Q55 614 77 657T143 721T236 751T355 760H361Q430 760 480 752T573
722T638 657T661 551V541Q661 435 582 383Q664 329 664 220V213ZM480 215V223Q480 278 463 301T400 325H316Q271 325 254 302T236 223V215Q236 152 265 130T355 108H361Q422 108 451 130T480 215ZM478 535V544Q478 594 449 614T361 634H355Q297 634 268 614T238
544V535Q238 488 255 466T316 443H400Q444 443 461 465T478 535Z" />
<glyph unicode="9" glyph-name="nine" horiz-adv-x="690" d="M640 290Q640 215 627 163T581 68T487 4T334 -17Q202 -17 86 12V182H197L207 122Q258 119 317 119Q405 119 430 150T456 259V283Q393 269 324 269Q261 269 215 278T129 309T70 375T50 482V513Q50 567
66 610T109 681T173 727T252 752T341 760Q496 760 568 688T640 457V290ZM456 397V483Q456 566 428 598T340 630Q291 630 263 601T234 513V485Q234 426 259 406T343 385Q403 385 456 397Z" />
<glyph unicode=":" glyph-name="colon" horiz-adv-x="316" d="M245 0H70V166H245V0ZM245 572V406H70V572H245Z" />
<glyph unicode=";" glyph-name="semicolon" horiz-adv-x="351" d="M294 167L153 -94H13L108 167H294ZM284 406H108V572H284V406Z" />
<glyph unicode="&lt;" glyph-name="less" horiz-adv-x="679" d="M575 119H384L104 386L384 652H575L297 386L575 119Z" />
<glyph unicode="=" glyph-name="equal" horiz-adv-x="679" d="M583 179H95V314H583V179ZM583 453H95V589H583V453Z" />
<glyph unicode="&gt;" glyph-name="greater" horiz-adv-x="679" d="M575 386L295 119H104L382 386L104 652H295L575 386Z" />
<glyph unicode="?" glyph-name="question" horiz-adv-x="564" d="M49 760Q137 791 267 791Q385 791 444 751T504 624V617Q504 566 481 523T400 427Q334 361 315 327T296 250V225H145V250Q145 321 158 360T221 450Q266 502 282 531T299 587V593Q299 624 278 637T209
650Q200 650 183 650T157 649L148 593H49V760ZM133 165H308V0H133V165Z" />
<glyph unicode="@" glyph-name="at" horiz-adv-x="886" d="M839 368Q839 297 819 241T755 139T634 68T452 43Q336 43 282 80T227 203Q227 233 231 277Q241 392 297 442T455 493Q541 493 637 470L604 152Q742 188 742 368Q742 590 475 590Q341 590 262 521T155
309Q141 237 141 173Q141 58 204 6T409 -47Q523 -47 598 -38V-98Q513 -115 410 -115Q225 -115 136 -44T47 173Q47 250 62 322Q135 664 475 664Q648 664 743 589T839 368ZM496 391Q476 394 447 394Q408 394 388 371T360 276Q356 228 356 202Q356 164 376 150T452
136H471L496 391Z" />
<glyph unicode="A" glyph-name="A" horiz-adv-x="813" d="M326 0H36V129L84 134L226 608L177 614V743H550L726 134L776 129V0H485V129L525 133L511 184H300L286 133L326 129V0ZM486 320L432 516Q426 537 418 582T409 630H402Q387 547 379 516L326 320H486Z" />
<glyph unicode="B" glyph-name="B" horiz-adv-x="729" d="M682 219Q682 163 665 122T619 56T543 16T447 -4T330 -10Q201 -10 44 0V130L91 135V607L44 613V743Q179 753 332 753Q509 753 593 709T678 543V534Q678 424 591 382Q638 360 660 319T682 229V219ZM501
220V231Q501 278 474 300T376 322H271V129Q298 128 345 128Q430 128 465 146T501 220ZM499 527V535Q499 586 465 601T347 616Q300 616 271 615V439H374Q447 439 473 460T499 527Z" />
<glyph unicode="C" glyph-name="C" horiz-adv-x="632" d="M583 4Q556 -4 492 -10T382 -17Q299 -17 240 0T136 56T70 163T48 330V414Q48 606 130 683T382 760Q428 760 492 754T583 739V551H468L459 609Q450 609 430 609T400 610Q312 610 275 570T237 414V330Q237
214 275 173T401 132Q423 132 459 134L468 193H583V4Z" />
<glyph unicode="D" glyph-name="D" horiz-adv-x="760" d="M710 336Q710 155 625 73T350 -10Q188 -10 44 2V129L94 136V609L44 616V743Q180 753 350 753Q537 753 623 671T710 410V336ZM525 336V410Q525 526 487 567T352 608H276V135H352Q448 135 486 178T525 336Z" />
<glyph unicode="E" glyph-name="E" horiz-adv-x="644" d="M596 0H44V129L90 134V609L44 614V743H596V558H483L474 604H277V447H575V314H277V139H474L483 187H596V0Z" />
<glyph unicode="F" glyph-name="F" horiz-adv-x="639" d="M576 313H278V134L326 129V0H44V129L91 134V609L44 614V743H598V556H484L475 603H278V445H576V313Z" />
<glyph unicode="G" glyph-name="G" horiz-adv-x="698" d="M643 7Q518 -17 376 -17Q304 -17 249 -3T147 48T74 155T48 329V415Q48 502 67 566T117 666T194 724T283 753T380 760Q529 760 641 732V551H527L517 607Q436 610 415 610Q367 610 337 604T282 577T245 518T233
415V329Q233 216 268 174T384 132Q445 132 469 134V286L390 294V403H643V7Z" />
<glyph unicode="H" glyph-name="H" horiz-adv-x="837" d="M511 743H793V614L746 609V134L793 129V0H511V129L558 134V311H279V134L326 129V0H44V129L91 134V609L44 614V743H326V614L279 609V457H558V609L511 614V743Z" />
<glyph unicode="I" glyph-name="I" horiz-adv-x="373" d="M327 0H45V129L92 134V609L45 614V743H327V614L280 609V134L327 129V0Z" />
<glyph unicode="J" glyph-name="J" horiz-adv-x="370" d="M324 614L277 609V-20Q277 -123 230 -168T79 -214Q14 -214 -21 -205V-91H33Q69 -91 79 -78T90 -28V609L43 614V743H324V614Z" />
<glyph unicode="K" glyph-name="K" horiz-adv-x="763" d="M324 0H44V129L90 134V609L44 614V743H324V614L277 609V400L532 743H724V614L667 609L472 376L667 133L723 129V0H519L277 344V134L324 129V0Z" />
<glyph unicode="L" glyph-name="L" horiz-adv-x="608" d="M569 0H44V129L90 134V609L44 614V743H324V614L277 609V144H445L455 203H569V0Z" />
<glyph unicode="M" glyph-name="M" horiz-adv-x="930" d="M316 0H44V129L88 134V609L44 614V743H272L413 510Q417 504 462 419H464Q487 466 513 509L656 743H886V614L839 609V134L886 129V0H611V129L658 134V362Q658 421 663 493H661Q633 432 607 392L517 251H409L319
392Q290 437 267 493H265Q269 407 269 362V134L316 129V0Z" />
<glyph unicode="N" glyph-name="N" horiz-adv-x="813" d="M504 743H769V614L722 609V0H528L310 380Q276 438 257 476H254Q260 418 260 352V134L307 129V0H44V129L90 134V609L44 614V743H280L500 370Q535 311 554 269H556Q551 336 551 400V609L504 614V743Z" />
<glyph unicode="O" glyph-name="O" horiz-adv-x="743" d="M695 335Q695 -17 372 -17Q48 -17 48 335V408Q48 760 372 760Q695 760 695 408V335ZM511 335V408Q511 519 477 565T372 611T267 565T232 408V335Q232 223 267 178T372 132Q441 132 476 177T511 335Z" />
<glyph unicode="P" glyph-name="P" horiz-adv-x="727" d="M318 0H44V130L91 134V609L44 614V743Q165 752 335 752Q398 752 446 747T541 726T617 684T665 614T684 509V500Q684 424 658 373T583 297T480 262T353 252Q340 252 314 252T271 253V134L318 129V0ZM503
500V509Q503 570 468 590T348 610Q335 610 309 610T271 609V398Q295 397 349 397Q431 397 467 418T503 500Z" />
<glyph unicode="Q" glyph-name="Q" horiz-adv-x="743" d="M695 332Q695 32 456 -9V-42Q456 -65 466 -71T513 -78H595V-182Q537 -200 447 -200Q366 -200 325 -167T283 -46V-7Q48 35 48 332V410Q48 760 372 760Q695 760 695 410V332ZM511 332V410Q511 520 476 565T372
611Q302 611 267 566T232 410V332Q232 222 267 177T372 132Q441 132 476 177T511 332Z" />
<glyph unicode="R" glyph-name="R" horiz-adv-x="757" d="M318 0H44V129L91 134V609L44 614V743Q201 752 338 752Q415 752 471 743T578 709T655 635T682 511V505Q682 357 564 300L666 134L720 129V0H541L389 264Q375 263 340 263H271V134L318 129V0ZM501 502V508Q501
568 466 588T343 609H271V397Q296 396 346 396Q430 396 465 419T501 502Z" />
<glyph unicode="S" glyph-name="S" horiz-adv-x="648" d="M601 210Q601 99 528 41T323 -17Q162 -17 66 7V183H179L189 123Q227 121 300 121Q360 121 387 140T415 200Q415 230 398 248T328 289L220 337Q133 376 90 424T47 553Q47 661 119 710T337 760Q465 760 577
734V564H464L453 621Q402 624 347 624Q287 624 259 609T231 558Q231 531 248 515T316 475L420 429Q517 386 559 340T601 210Z" />
<glyph unicode="T" glyph-name="T" horiz-adv-x="697" d="M657 552H549L539 603H442V133L489 128V0H207V128L255 133V603H158L148 552H39V743H657V552Z" />
<glyph unicode="U" glyph-name="U" horiz-adv-x="810" d="M488 743H766V614L719 609V301Q719 143 638 63T405 -17T172 63T91 301V609L44 614V743H323V614L276 609V306Q276 207 303 168T405 128Q480 128 507 167T535 306V609L488 614V743Z" />
<glyph unicode="V" glyph-name="V" horiz-adv-x="804" d="M486 743H767V614L717 609L544 0H258L85 609L36 614V743H317V614L280 610L373 249Q384 206 400 113H402Q427 241 429 249L523 610L486 614V743Z" />
<glyph unicode="W" glyph-name="W" horiz-adv-x="1045" d="M730 743H1010V614L961 609L857 0H631L544 325Q538 349 524 436H521Q520 432 513 389T501 325L415 0H187L83 609L34 614V743H315V614L268 609L309 345Q312 324 326 204H330Q334 222 341 266T354 334L425
586H621L692 332Q699 307 706 262T715 204H719Q726 284 736 345L777 609L730 614V743Z" />
<glyph unicode="X" glyph-name="X" horiz-adv-x="750" d="M714 0H517L363 227L223 0H36V129L93 134L257 385L106 608L51 614V743H240L390 523L531 743H710V614L653 608L494 369L652 135L714 129V0Z" />
<glyph unicode="Y" glyph-name="Y" horiz-adv-x="700" d="M664 614L614 608L441 277V130L488 124V0H209V124L259 130V276L85 608L36 614V743H211L305 549Q337 480 349 439H352Q369 493 396 549L490 743H664V614Z" />
<glyph unicode="Z" glyph-name="Z" horiz-adv-x="650" d="M603 0H47V145L377 600H174L165 549H56V743H594V597L264 143H484L495 197H603V0Z" />
<glyph unicode="[" glyph-name="bracketleft" horiz-adv-x="439" d="M390 -201H83V743H390V610H256V-69H390V-201Z" />
<glyph unicode="\" glyph-name="backslash" horiz-adv-x="513" d="M483 0H307L29 743H205L483 0Z" />
<glyph unicode="]" glyph-name="bracketright" horiz-adv-x="439" d="M357 -201H48V-69H182V610H48V743H357V-201Z" />
<glyph unicode="^" glyph-name="asciicircum" horiz-adv-x="722" d="M642 428H478L361 675L244 428H80L237 745H485L642 428Z" />
<glyph unicode="_" glyph-name="underscore" horiz-adv-x="614" d="M603 -140H11V-48H603V-140Z" />
<glyph unicode="`" glyph-name="grave" horiz-adv-x="488" d="M376 633H213L46 778H244L376 633Z" />
<glyph unicode="a" glyph-name="a" horiz-adv-x="637" d="M596 0H392V37Q314 -14 212 -14Q131 -14 88 27T45 149V172Q45 227 64 262T125 313T210 335T323 341H376V372Q376 424 357 439T271 455Q253 455 209 453L199 409H87V552Q186 586 307 586Q441 586 496 538T551
372V132L596 127V0ZM383 125V251H325Q261 251 236 238T211 178V155Q211 99 276 99Q336 99 383 125Z" />
<glyph unicode="b" glyph-name="b" horiz-adv-x="648" d="M600 258Q600 112 530 49T312 -14Q200 -14 62 1V648L16 653V780H235V567Q282 587 352 587Q480 587 540 524T600 326V258ZM426 258V327Q426 398 405 425T329 452Q272 452 234 435V125Q272 121 315 121Q377
121 401 150T426 258Z" />
<glyph unicode="c" glyph-name="c" horiz-adv-x="541" d="M494 8Q413 -14 304 -14Q174 -14 112 53T49 255V318Q49 454 111 520T304 586Q425 586 494 564V404H386L377 448Q349 450 333 450Q275 450 249 423T223 318V255Q223 176 249 149T336 121Q374 121 494 129V8Z" />
<glyph unicode="d" glyph-name="d" horiz-adv-x="674" d="M634 0H427V30Q357 -14 265 -14Q161 -14 105 51T49 249V318Q49 461 115 523T308 586Q361 586 414 578V669L363 673V780H588V132L634 127V0ZM415 140V444Q367 452 329 452Q272 452 248 426T223 318V249Q223
178 245 150T321 121Q371 121 415 140Z" />
<glyph unicode="e" glyph-name="e" horiz-adv-x="637" d="M594 238H220V230Q220 168 243 143T353 118Q474 118 567 128V11Q465 -14 345 -14Q186 -14 117 48T47 257V309Q47 449 118 517T322 586Q399 586 454 563T538 498T581 407T594 297V238ZM424 334V342Q424
398 404 429T322 460Q263 460 242 429T221 342V334H424Z" />
<glyph unicode="f" glyph-name="f" horiz-adv-x="472" d="M436 445H303V132L349 127V0H83V127L129 132V445L34 454V572H129V617Q129 707 169 751T302 795Q377 795 437 779V678Q389 681 357 681Q321 681 312 668T303 615V572H436V445Z" />
<glyph unicode="g" glyph-name="g" horiz-adv-x="646" d="M597 -32Q597 -130 525 -173T311 -216Q171 -216 103 -174T35 -37Q35 30 87 76Q42 108 42 161Q42 221 97 250Q50 295 50 387Q50 434 61 467T99 529T181 572T315 586H601V496L550 484Q579 444 579 387Q579
280 510 234T313 187Q245 187 198 201Q179 188 179 171Q179 155 188 151T226 146H312Q464 146 530 110T597 -32ZM430 -36Q430 8 408 21T312 34H222Q197 11 197 -36Q197 -77 221 -93T312 -110Q378 -110 404 -93T430 -36ZM412 342T412 387T392 452T313 473T236 453T217
387T237 321T313 300Q372 300 392 321Z" />
<glyph unicode="h" glyph-name="h" horiz-adv-x="710" d="M670 0H449V360Q449 413 433 432T375 452Q316 452 260 426V132L306 127V0H40V127L86 132V648L40 653V780H260V547Q336 586 431 586Q542 586 583 529T624 362V132L670 127V0Z" />
<glyph unicode="i" glyph-name="i" horiz-adv-x="346" d="M306 0H40V128L86 132V440L40 445V572H260V132L306 128V0ZM264 648H82V780H264V648Z" />
<glyph unicode="j" glyph-name="j" horiz-adv-x="326" d="M263 -32Q263 -136 222 -176T79 -217Q13 -217 -19 -209V-96H37Q69 -96 79 -83T89 -32V440L43 445V572H263V-32ZM266 648H85V780H266V648Z" />
<glyph unicode="k" glyph-name="k" horiz-adv-x="653" d="M613 0H435L260 264V0H40V127L86 132V649L40 653V780H260V319L439 572H612V444L547 438L430 297L556 135L613 128V0Z" />
<glyph unicode="l" glyph-name="l" horiz-adv-x="346" d="M306 0H40V127L86 132V648L40 653V780H260V132L306 127V0Z" />
<glyph unicode="m" glyph-name="m" horiz-adv-x="1001" d="M961 0H740V372Q740 396 739 407T733 431T715 449T681 454Q639 454 585 427Q588 409 588 372V0H413V372Q413 404 411 418T397 443T358 454Q316 454 260 425V132L306 127V0H40V127L86 132V441L40 445V572H250V526Q324
586 422 586Q517 586 557 524Q645 586 736 586Q782 586 815 575T867 545T897 498T911 442T915 376V132L961 127V0Z" />
<glyph unicode="n" glyph-name="n" horiz-adv-x="710" d="M670 0H449V362Q449 414 436 433T382 452Q339 452 260 421V132L306 127V0H40V127L86 132V440L40 445V572H250V525Q346 586 436 586Q486 586 521 574T576 544T607 494T621 433T624 362V132L670 127V0Z" />
<glyph unicode="o" glyph-name="o" horiz-adv-x="646" d="M597 255Q597 -14 322 -14Q49 -14 49 255V317Q49 586 322 586Q597 586 597 317V255ZM423 255V317Q423 391 400 421T322 451Q269 451 246 421T222 317V255Q222 181 245 151T322 121Q376 121 399 151T423 255Z" />
<glyph unicode="p" glyph-name="p" horiz-adv-x="673" d="M306 -202H40V-75L86 -70V440L40 445V572H247V536Q321 586 416 586Q625 586 625 325V254Q625 112 557 49T360 -14Q303 -14 260 -5V-70L306 -75V-202ZM451 254V325Q451 396 430 423T358 450Q313 450 258
427V129Q312 120 344 120Q400 120 425 147T451 254Z" />
<glyph unicode="q" glyph-name="q" horiz-adv-x="654" d="M630 -202H366V-75L412 -70V7Q358 -14 288 -14Q163 -14 105 48T47 248V316Q47 468 117 527T340 586Q450 586 585 570V-70L630 -75V-202ZM412 139V447Q384 450 335 450Q270 450 246 425T221 315V248Q221
175 240 148T310 121Q357 121 412 139Z" />
<glyph unicode="r" glyph-name="r" horiz-adv-x="471" d="M436 437Q340 437 260 412V132L305 127V0H40V127L86 132V440L40 445V572H248V524Q315 586 436 586V437Z" />
<glyph unicode="s" glyph-name="s" horiz-adv-x="552" d="M508 162Q508 -14 257 -14Q141 -14 53 8V154H167L176 107Q224 105 248 105Q298 105 317 116T336 154Q336 177 321 189T250 224L208 241Q123 274 83 314T43 423Q43 513 102 549T278 586Q415 586 490 563V425H377L367
466Q321 468 296 468Q250 468 232 460T214 428Q214 407 228 396T289 366L339 347Q434 311 471 271T508 162Z" />
<glyph unicode="t" glyph-name="t" horiz-adv-x="485" d="M440 1Q384 -14 313 -14Q221 -14 180 26T139 161V445L40 454V572H139V710H313V572H441V445H314V163Q314 127 321 117T361 107Q372 107 440 111V1Z" />
<glyph unicode="u" glyph-name="u" horiz-adv-x="710" d="M670 0H460V46Q354 -14 260 -14Q215 -14 182 -1T131 31T103 82T89 142T86 210V440L40 446V572H260V210Q260 158 273 139T328 120Q376 120 449 151V440L404 446V572H624V132L670 126V0Z" />
<glyph unicode="v" glyph-name="v" horiz-adv-x="684" d="M645 444L597 437L464 0H218L85 437L37 444V572H229L308 263Q323 201 341 108H343Q369 232 377 263L455 572H645V444Z" />
<glyph unicode="w" glyph-name="w" horiz-adv-x="995" d="M955 444L907 438L812 0H599L520 240Q500 300 497 350H494Q489 294 471 240L391 0H179L84 439L36 444V572H235L285 293Q290 261 297 215T305 160H310Q313 172 318 198T328 248T341 293L407 486H587L652
293Q662 263 672 214T684 160H688Q692 180 698 224T709 294L759 572H955V444Z" />
<glyph unicode="x" glyph-name="x" horiz-adv-x="639" d="M599 0H426L303 165L192 0H40V128L85 134L201 302L100 438L45 444V572H215L331 415L435 572H591V444L536 438L427 286L541 133L599 128V0Z" />
<glyph unicode="y" glyph-name="y" horiz-adv-x="697" d="M660 445L604 439L459 0Q422 -113 371 -164T221 -215Q122 -215 61 -201V-88Q159 -90 167 -90Q198 -90 214 -76T244 -23L255 7L93 439L37 445V572H234L317 283Q342 195 353 131H355Q362 184 386 281L462
572H660V445Z" />
<glyph unicode="z" glyph-name="z" horiz-adv-x="553" d="M509 0H44V130L313 444H161L152 404H53V572H508V440L241 127H401L411 173H509V0Z" />
<glyph unicode="{" glyph-name="braceleft" horiz-adv-x="465" d="M415 -202H351Q207 -202 157 -163T106 -12V117Q106 162 94 182T46 222V319Q81 339 93 359T106 424V553Q106 665 156 704T351 743H414V610H354Q305 610 293 601T280 553V424Q280 362 263 330T200
270Q244 244 262 211T280 117V-12Q280 -50 292 -60T354 -70H415V-202Z" />
<glyph unicode="|" glyph-name="bar" horiz-adv-x="338" d="M256 -202H82V743H256V-202Z" />
<glyph unicode="}" glyph-name="braceright" horiz-adv-x="465" d="M418 222Q384 202 372 182T359 117V-12Q359 -123 309 -162T114 -202H50V-70H111Q160 -70 172 -60T184 -12V117Q184 178 202 211T264 270Q220 297 203 330T185 424V553Q185 591 173 600T111 610H51V743H114Q259
743 309 704T359 553V424Q359 380 371 360T418 319V222Z" />
<glyph unicode="~" glyph-name="asciitilde" horiz-adv-x="698" d="M613 498Q613 406 578 363T458 320Q404 320 357 349L295 388Q262 409 240 409Q219 409 212 396T204 347V326H84V347Q84 443 121 485T229 527Q286 527 338 495L400 456Q431 437 458 437Q480 437
487 451T494 498V520H613V498Z" />
</font>
</defs>
</svg>
